<?xml version="1.0" encoding="utf-8"?>
<!-- Generator: Adobe Illustrator 28.0.0, SVG Export Plug-In . SVG Version: 6.00 Build 0)  -->
<svg version="1.1" id="Layer_1" xmlns="http://www.w3.org/2000/svg" xmlns:xlink="http://www.w3.org/1999/xlink" x="0px" y="0px"
	 viewBox="0 0 3370.4 2383.9" style="enable-background:new 0 0 3370.4 2383.9;" xml:space="preserve">
<style type="text/css">
	.st0{fill:#1A4996;}
	.st1{fill:#FEEA20;}
</style>
<g>
	<g>
		<rect x="1095.2" y="562.5" class="st0" width="1123.1" height="1198.9"/>
	</g>
	<g>
		<path class="st1" d="M605.1,768.4c149.1,103.6,189.5,339.9,437.1,284.2c-11.3-30.3-15.2-56.8-29.1-75.8
			C781.9,647.1,852.8,433.6,1233,318.6c472.5-142.8,1070,64.4,1348,470c26.6,39.1,41.6,85.9,65.7,126.4
			c72.1,126.4,145.3,252.7,214.7,373.9c-65.7,27.8-199.6,53.1-288.1,130.1c-73.3,63.1-93.5,188.3-145.3,286.8
			c-24,54.3-46.7,108.6-48,111.2c-104.9,25.2-168,31.6-224.8,54.3c-193.3,78.3-377.8,207.2-576,233.8
			c-382.8,51.8-655.7-298.1-563.5-675.9c11.3-45.5,22.7-91,34.2-137.7c-189.5-7.6-214.8,13.9-293,252.7
			C488.9,1410.2,420.7,1083,605.1,768.4z M1636.1,661.1c-288.1,205.9-326,759.3,0,1092.8C1636.1,1390.1,1636.1,1032.5,1636.1,661.1z
			 M1910.1,1747.5c18.9-348.7,36.7-664.5,55.6-1010.6C1633.5,1014.8,1610.7,1468.4,1910.1,1747.5z M1359.3,1780.4
			c0-377.8,0-753,0-1157.2C1072.6,960.5,1087.8,1492.3,1359.3,1780.4z"/>
		<path class="st0" d="M1505.8,2121.4c-146.5,0-283-59.4-380.3-166.8c-123.8-137.7-170.5-334.8-122.5-528
			c7.6-31.6,15.2-61.9,24-93.5l7.6-29.1c-168-5.1-190.8,17.7-264.1,245.1l-5.1,13.9l-12.7-6.3c-121.3-60.6-204.7-159.2-242.6-285.5
			c-46.7-156.7-16.4-336,84.6-507.9l6.3-11.3l11.3,7.6c50.6,35.4,88.5,84.6,125,132.6c72.1,92.2,138.9,180.7,289.3,152.9
			c-1.2-6.3-3.7-11.3-5.1-16.4c-5.1-17.7-10.1-31.6-17.7-43C884,815.2,844.8,676.2,884,562.5c39.1-112.5,151.6-195.8,347.5-253.9
			c231.2-70.7,499-59.4,755.5,29.1c255.1,88.5,471.2,247.7,607.7,445.9c16.4,24,29.1,50.6,40.4,75.8c7.6,17.7,16.4,35.4,25.2,51.8
			c51.8,91,104.9,183.2,155.4,271.7c20.2,34.2,39.1,68.2,58.2,102.3l7.6,12.7l-12.7,5.1c-17.7,7.6-40.4,15.2-65.7,22.7
			c-69.5,22.7-155.4,50.6-218.6,104.9c-44.2,39.1-68.2,102.3-94.7,170.5c-13.9,37.9-29.1,77.1-49.2,113.7l-50.6,115l-6.3,1.2
			c-36.7,8.8-69.5,15.2-97.3,21.5c-53.1,11.3-91,18.9-126.4,32.8c-64.4,26.6-128.9,58.2-190.8,89.7
			c-125,61.9-253.9,127.6-389.1,145.3C1556.4,2120.2,1531.2,2121.4,1505.8,2121.4z M999.3,1277.6c16.4,0,32.8,0,51.8,1.2h15.2
			l-15.2,59.4c-7.6,31.6-16.4,61.9-24,93.5c-45.5,185.7-1.2,373.9,117.4,505.3c108.6,120,265.3,176.8,432.1,154.1
			c130.1-17.7,257.7-80.9,380.3-142.8c63.1-31.6,127.6-63.1,192-89.7c37.9-15.2,78.3-24,130.1-34.2c26.6-5.1,55.6-11.3,89.7-18.9
			l45.5-104.9c18.9-35.4,34.2-74.6,48-111.2c26.6-70.7,51.8-137.7,101-180.7c67-58.2,155.4-87.1,227.4-109.9
			c18.9-6.3,35.4-11.3,50.6-16.4c-16.4-29.1-34.2-59.4-51.8-89.7c-50.6-88.5-103.6-180.7-155.4-271.7
			c-10.1-17.7-18.9-35.4-26.6-54.3c-11.3-25.2-22.7-50.6-37.9-72.1c-132.6-193.3-343.6-348.7-595-435.8
			c-250.2-87.1-512.9-97.3-739.1-29.1c-186.9,56.8-294.4,135.2-331,238.7c-36.7,104.9,2.5,236.2,117.4,400.4
			c10.1,13.9,15.2,31.6,20.2,50.6c2.5,8.8,5.1,18.9,8.8,29.1l5.1,13.9l-13.9,2.5c-174.4,39.1-252.7-61.9-328.5-159.2
			c-32.8-43-67-85.9-108.6-118.8c-92.2,161.7-118.8,329.7-74.6,475c34.2,115,108.6,205.9,217.2,262.7
			C819.8,1316.7,851.5,1277.6,999.3,1277.6z M1372,1812l-21.5-22.7c-284.2-302-284.2-838.9,0-1173.6l22.7-26.6v1222.9h-1.2V1812z
			 M1346.8,658.6c-246.3,317-246.3,799.7,0,1087.8V658.6z M1648.6,1784.1l-21.5-22.7c-165.5-170.5-251.4-415.7-231.2-656.9
			c17.7-195.8,102.3-361.3,232.4-454.8l20.2-13.9v1148.2H1648.6z M1623.4,686.3c-113.7,91-185.7,243.8-202.2,420.7
			c-20.2,223.6,55.6,449.7,202.2,613.9V686.3z M1921.5,1775.3l-20.2-18.9c-142.8-134-219.8-310.8-214.8-499
			c5.1-200.8,101-390.4,270.3-530.5l22.7-18.9L1921.5,1775.3z M1951.9,766c-149.1,134-233.8,308.2-238.7,492.7
			c-5.1,171.9,61.9,334.8,186.9,461.2L1951.9,766z"/>
	</g>
</g>
</svg>
